<?xml version="1.0" encoding="UTF-8"?>
<svg version="1.1" xmlns="http://www.w3.org/2000/svg" width="225" height="225">
<path d="M0 0 C74.25 0 148.5 0 225 0 C225 74.25 225 148.5 225 225 C150.75 225 76.5 225 0 225 C0 150.75 0 76.5 0 0 Z " fill="#FDFDFD" transform="translate(0,0)"/>
<path d="M0 0 C43.89 0 87.78 0 133 0 C132.01 0.66 131.02 1.32 130 2 C123.86912193 7.02153432 118.25733314 12.58379973 112.64990234 18.1730957 C111.75128983 19.06513702 110.85267731 19.95717834 109.92683411 20.87625122 C106.97636212 23.80591269 104.03101385 26.74069749 101.0859375 29.67578125 C100.06455138 30.69311252 99.04313419 31.7104126 98.02168655 32.72768211 C93.22439636 37.50597884 88.42948241 42.28664434 83.63749635 47.07026035 C78.13218222 52.56579489 72.6186767 58.05293725 67.09810865 63.53314716 C62.81140274 67.78959985 58.53249058 72.05378894 54.25923312 76.32374257 C51.71537733 78.86526045 49.16839999 81.40344081 46.61307907 83.93343544 C43.76126339 86.7574322 40.92577875 89.59731437 38.09130859 92.4387207 C36.83809059 93.67272362 36.83809059 93.67272362 35.55955505 94.93165588 C27.66966437 102.89185681 22.57292837 111.05545397 20 122 C19.773125 122.94875 19.54625 123.8975 19.3125 124.875 C17.93311059 138.66889407 19.70988238 153.46173829 28 165 C33.71125822 171.71571857 39.8573047 178.03649767 46.05859375 184.296875 C46.88778824 185.13414124 47.71698273 185.97140747 48.57130432 186.83404541 C50.3101577 188.58661148 52.05048464 190.33771667 53.79223633 192.08740234 C55.55844237 193.86518205 57.32015856 195.64743347 59.07739258 197.43408203 C61.64462235 200.04413485 64.2249914 202.64053935 66.80859375 205.234375 C67.5818248 206.02511414 68.35505585 206.81585327 69.15171814 207.6305542 C78.4948778 216.93731723 88.84387429 222.60041216 102 224 C102 224.33 102 224.66 102 225 C68.34 225 34.68 225 0 225 C0 150.75 0 76.5 0 0 Z " fill="#FEFEFE" transform="translate(0,0)"/>
<path d="M0 0 C3.23551706 2.11011982 4.85394116 3.78091174 7 7 C7.3359375 9.05078125 7.3359375 9.05078125 7.375 11.3125 C7.40335938 12.05113281 7.43171875 12.78976562 7.4609375 13.55078125 C6.407643 19.14752404 1.98636061 23.25153272 -1.94921875 27.109375 C-2.87927734 28.02847656 -3.80933594 28.94757812 -4.76757812 29.89453125 C-5.74053951 30.84670776 -6.71385071 31.79852693 -7.6875 32.75 C-9.6112928 34.63741125 -11.53088016 36.52890066 -13.44921875 38.421875 C-14.29830811 39.25299805 -15.14739746 40.08412109 -16.0222168 40.94042969 C-18.04530096 42.8431446 -18.04530096 42.8431446 -19 45 C-18.071875 45.04125 -17.14375 45.0825 -16.1875 45.125 C-2.80916018 47.26778645 6.19500197 58.57769914 15.125 67.75 C16.55878329 69.20031946 17.99367114 70.64954781 19.4296875 72.09765625 C22.0312967 74.73302875 24.63247761 77.36869417 27.21533203 80.02246094 C27.73064484 80.55063416 28.24595764 81.07880737 28.77688599 81.62298584 C31.64058559 84.84701472 31.44376349 88.24689761 31.42578125 92.3828125 C30.72719485 96.6768757 28.24618718 99.24999169 25 102 C21.92805092 103.53597454 19.39755707 103.2265038 16 103 C10.71929417 100.90517455 7.45160975 97.7827725 3.625 93.75 C2.48109441 92.57364319 1.33526998 91.39914913 0.1875 90.2265625 C-0.36035156 89.66614258 -0.90820312 89.10572266 -1.47265625 88.52832031 C-3.94060303 86.05879557 -6.57048849 83.80301599 -9.23828125 81.5546875 C-11.13306203 79.88257497 -12.83235077 78.09090934 -14.5625 76.25 C-21.19413498 69.67744417 -27.10955504 69.64583595 -36.18359375 69.50390625 C-45.83511863 70.7585057 -51.48911613 76.90994254 -58.046875 83.55078125 C-59.44731049 84.94903389 -59.44731049 84.94903389 -60.8760376 86.37553406 C-62.84223514 88.3403545 -64.80134206 90.31189766 -66.75537109 92.28881836 C-69.2471122 94.80896146 -71.75413435 97.3132142 -74.26646042 99.81281757 C-76.68013857 102.21782803 -79.08180821 104.63466967 -81.484375 107.05078125 C-82.37920593 107.94267654 -83.27403687 108.83457184 -84.19598389 109.75349426 C-92.46350581 118.0783234 -92.46350581 118.0783234 -96 129 C-96.07476562 129.71929687 -96.14953125 130.43859375 -96.2265625 131.1796875 C-96.64448971 138.24045774 -95.20142297 143.29695734 -91 149 C-87.828427 152.46970086 -84.49056936 155.7631039 -81.08178711 158.9987793 C-80.42960205 159.61793213 -79.77741699 160.23708496 -79.10546875 160.875 C-78.21057739 161.70644531 -78.21057739 161.70644531 -77.29760742 162.5546875 C-76 164 -76 164 -76 166 C-75.34 166 -74.68 166 -74 166 C-72.58325195 167.42700195 -72.58325195 167.42700195 -70.92578125 169.42578125 C-66.86020981 174.19996277 -62.57923646 178.7132544 -58.1875 183.1875 C-57.44435547 183.96802734 -56.70121094 184.74855469 -55.93554688 185.55273438 C-49.99547934 191.58489598 -43.97911584 196.04679089 -35.53125 197.6640625 C-34.5309375 197.65117187 -33.530625 197.63828125 -32.5 197.625 C-31.4996875 197.63789063 -30.499375 197.65078125 -29.46875 197.6640625 C-19.27852449 195.71323104 -12.91024343 189.52423502 -6 182.1875 C11.62128643 163.72644914 11.62128643 163.72644914 18.75 163.25 C22.97559234 163.66134085 25.75814717 165.23256466 29 168 C32.07065736 172.60598604 32.03416837 176.63241602 31 182 C29.35302734 184.36962891 29.35302734 184.36962891 27.1484375 186.6640625 C26.33109131 187.52491455 25.51374512 188.3857666 24.67163086 189.27270508 C23.78999268 190.1727124 22.90835449 191.07271973 22 192 C21.11771729 192.91869873 20.23543457 193.83739746 19.32641602 194.78393555 C17.0217834 197.16669828 14.70024751 199.53032256 12.36108398 201.87915039 C10.9281143 203.32195008 9.50618876 204.77511293 8.08398438 206.22851562 C1.08300077 213.26847478 -5.03213379 218.50130709 -14.6875 221.25 C-15.76386719 221.56453125 -16.84023437 221.8790625 -17.94921875 222.203125 C-32.05832163 225.88847326 -45.71923766 224.43847476 -58.78515625 218.12109375 C-67.22977726 212.54949082 -74.35084973 204.82164574 -81.515625 197.72265625 C-82.80481842 196.44557045 -82.80481842 196.44557045 -84.12005615 195.14268494 C-85.91970283 193.35675501 -87.71788558 191.56934878 -89.51464844 189.78051758 C-91.34092997 187.96580923 -93.17168334 186.15559037 -95.00683594 184.34985352 C-97.6863792 181.71311981 -100.35229346 179.06325289 -103.015625 176.41015625 C-103.82823792 175.61505142 -104.64085083 174.81994659 -105.47808838 174.00074768 C-112.2052483 167.2479651 -117.46271042 159.93962982 -120.3125 150.75 C-120.61800781 149.79609375 -120.92351562 148.8421875 -121.23828125 147.859375 C-124.90574001 134.09229902 -123.55811934 119.10529731 -116.62239456 106.54388428 C-111.31911097 98.22843497 -103.46023151 91.30845194 -96.52050781 84.359375 C-95.62014297 83.45404526 -94.71977814 82.54871552 -93.79212952 81.61595154 C-91.35479054 79.16567208 -88.91428264 76.71857514 -86.47270679 74.27251816 C-84.94398688 72.74084422 -83.4158459 71.20859489 -81.88787079 69.67617798 C-77.09595232 64.87064808 -72.3020842 60.06707614 -67.50529885 55.26640415 C-61.98589242 49.74249861 -56.47312765 44.21207404 -50.96591115 38.67601585 C-46.69072733 34.3792257 -42.40980584 30.08820782 -38.12447429 25.80153847 C-35.57160658 23.24762423 -33.02121309 20.69135207 -30.47678375 18.12902832 C-27.64676951 15.27948955 -24.80495852 12.44200712 -21.96191406 9.60546875 C-21.12441116 8.75875107 -20.28690826 7.91203339 -19.42402649 7.03965759 C-18.64764328 6.26884354 -17.87126007 5.49802948 -17.0713501 4.70385742 C-16.40183445 4.03287521 -15.7323188 3.36189301 -15.0425148 2.670578 C-10.26112457 -1.24013312 -5.76687382 -1.63433671 0 0 Z " fill="#010101" transform="translate(141,1)"/>
<path d="M0 0 C0.98741684 -0.00525696 1.97483368 -0.01051392 2.99217224 -0.01593018 C6.25804436 -0.02913989 9.5234295 -0.02038776 12.78930664 -0.01025391 C15.05847772 -0.01227452 17.32764816 -0.01518585 19.59681702 -0.01895142 C24.35399555 -0.02337623 29.11100515 -0.0169391 33.86816406 -0.00292969 C39.96594936 0.01415237 46.06333826 0.00432796 52.16110897 -0.01364708 C56.8476917 -0.02448886 61.5341805 -0.02103655 66.22076607 -0.0132637 C68.46904103 -0.01126229 70.71732452 -0.01371889 72.96558952 -0.02070236 C76.10879974 -0.02832204 79.25136877 -0.0167044 82.39453125 0 C83.78880341 -0.00910904 83.78880341 -0.00910904 85.21124268 -0.0184021 C91.11735689 0.03973882 94.63877621 0.85868215 99.01196289 5.07568359 C100.80890903 8.40003395 101.391561 11.651438 101.26196289 15.38818359 C99.8860177 19.03443836 98.34291955 21.9490929 95.26196289 24.38818359 C92.52482608 25.30056253 90.88898759 25.52089733 88.06925964 25.54208374 C87.2155629 25.5506842 86.36186615 25.55928467 85.4822998 25.56814575 C84.54873657 25.5724057 83.61517334 25.57666565 82.65332031 25.58105469 C81.17482353 25.59332092 81.17482353 25.59332092 79.66645813 25.60583496 C76.40012215 25.63067583 73.13382956 25.64720065 69.86743164 25.66162109 C68.75235041 25.66694477 67.63726917 25.67226845 66.4883976 25.67775345 C60.58764966 25.70447782 54.68692284 25.72385607 48.78613281 25.73828125 C42.68942741 25.75493808 36.5932616 25.79972714 30.49676037 25.85065269 C25.81015902 25.88429202 21.12368637 25.89585501 16.43697548 25.90150833 C14.1894855 25.90822863 11.94200422 25.92347074 9.69463158 25.94739914 C6.54890159 25.97898479 3.40463571 25.97909706 0.25878906 25.97167969 C-0.66870148 25.98808502 -1.59619202 26.00449036 -2.55178833 26.02139282 C-6.91878259 25.97925804 -9.81793854 25.78469258 -13.27690125 22.96890259 C-16.63041378 19.45244759 -17.57630206 17.84379901 -18.11303711 13.01318359 C-17.597299 8.02771518 -15.55734765 5.34479273 -12.20603943 1.74057007 C-8.28830756 -0.40622191 -4.39569907 -0.02865552 0 0 Z " fill="#010101" transform="translate(105.738037109375,121.61181640625)"/>
</svg>
